<?xml version="1.0" encoding="utf-8" standalone="no"?>
<!DOCTYPE svg PUBLIC "-//W3C//DTD SVG 1.1//EN"
  "http://www.w3.org/Graphics/SVG/1.1/DTD/svg11.dtd">
<svg xmlns:xlink="http://www.w3.org/1999/xlink" width="1728pt" height="1296pt" viewBox="0 0 1728 1296" xmlns="http://www.w3.org/2000/svg" version="1.1">
 <metadata>
  <rdf:RDF xmlns:dc="http://purl.org/dc/elements/1.1/" xmlns:cc="http://creativecommons.org/ns#" xmlns:rdf="http://www.w3.org/1999/02/22-rdf-syntax-ns#">
   <cc:Work>
    <dc:type rdf:resource="http://purl.org/dc/dcmitype/StillImage"/>
    <dc:date>2024-01-14T10:55:21.795182</dc:date>
    <dc:format>image/svg+xml</dc:format>
    <dc:creator>
     <cc:Agent>
      <dc:title>Matplotlib v3.6.2, https://matplotlib.org/</dc:title>
     </cc:Agent>
    </dc:creator>
   </cc:Work>
  </rdf:RDF>
 </metadata>
 <defs>
  <style type="text/css">*{stroke-linejoin: round; stroke-linecap: butt}</style>
 </defs>
 <g id="figure_1">
  <g id="patch_1">
   <path d="M 0 1296 
L 1728 1296 
L 1728 0 
L 0 0 
z
" style="fill: #ffffff"/>
  </g>
  <g id="axes_1">
   <g id="patch_2">
    <path d="M 216 449.025882 
L 1555.2 449.025882 
L 1555.2 155.52 
L 216 155.52 
z
" style="fill: #ffffff"/>
   </g>
   <g id="matplotlib.axis_1">
    <g id="xtick_1">
     <g id="line2d_1">
      <defs>
       <path id="m88e8a646c0" d="M 0 0 
L 0 3.5 
" style="stroke: #000000; stroke-width: 0.8"/>
      </defs>
      <g>
       <use xlink:href="#m88e8a646c0" x="258.896888" y="449.025882" style="stroke: #000000; stroke-width: 0.8"/>
      </g>
     </g>
    </g>
    <g id="xtick_2">
     <g id="line2d_2">
      <g>
       <use xlink:href="#m88e8a646c0" x="706.250153" y="449.025882" style="stroke: #000000; stroke-width: 0.8"/>
      </g>
     </g>
    </g>
    <g id="xtick_3">
     <g id="line2d_3">
      <g>
       <use xlink:href="#m88e8a646c0" x="1153.603417" y="449.025882" style="stroke: #000000; stroke-width: 0.8"/>
      </g>
     </g>
    </g>
   </g>
   <g id="matplotlib.axis_2">
    <g id="ytick_1">
     <g id="line2d_4">
      <defs>
       <path id="md8f7d43139" d="M 0 0 
L -3.5 0 
" style="stroke: #000000; stroke-width: 0.8"/>
      </defs>
      <g>
       <use xlink:href="#md8f7d43139" x="216" y="420.032619" style="stroke: #000000; stroke-width: 0.8"/>
      </g>
     </g>
     <g id="text_1">
      <!-- −80 -->
      <g transform="translate(187.895312 423.831838) scale(0.1 -0.1)">
       <defs>
        <path id="DejaVuSans-2212" d="M 678 2272 
L 4684 2272 
L 4684 1741 
L 678 1741 
L 678 2272 
z
" transform="scale(0.015625)"/>
        <path id="DejaVuSans-38" d="M 2034 2216 
Q 1584 2216 1326 1975 
Q 1069 1734 1069 1313 
Q 1069 891 1326 650 
Q 1584 409 2034 409 
Q 2484 409 2743 651 
Q 3003 894 3003 1313 
Q 3003 1734 2745 1975 
Q 2488 2216 2034 2216 
z
M 1403 2484 
Q 997 2584 770 2862 
Q 544 3141 544 3541 
Q 544 4100 942 4425 
Q 1341 4750 2034 4750 
Q 2731 4750 3128 4425 
Q 3525 4100 3525 3541 
Q 3525 3141 3298 2862 
Q 3072 2584 2669 2484 
Q 3125 2378 3379 2068 
Q 3634 1759 3634 1313 
Q 3634 634 3220 271 
Q 2806 -91 2034 -91 
Q 1263 -91 848 271 
Q 434 634 434 1313 
Q 434 1759 690 2068 
Q 947 2378 1403 2484 
z
M 1172 3481 
Q 1172 3119 1398 2916 
Q 1625 2713 2034 2713 
Q 2441 2713 2670 2916 
Q 2900 3119 2900 3481 
Q 2900 3844 2670 4047 
Q 2441 4250 2034 4250 
Q 1625 4250 1398 4047 
Q 1172 3844 1172 3481 
z
" transform="scale(0.015625)"/>
        <path id="DejaVuSans-30" d="M 2034 4250 
Q 1547 4250 1301 3770 
Q 1056 3291 1056 2328 
Q 1056 1369 1301 889 
Q 1547 409 2034 409 
Q 2525 409 2770 889 
Q 3016 1369 3016 2328 
Q 3016 3291 2770 3770 
Q 2525 4250 2034 4250 
z
M 2034 4750 
Q 2819 4750 3233 4129 
Q 3647 3509 3647 2328 
Q 3647 1150 3233 529 
Q 2819 -91 2034 -91 
Q 1250 -91 836 529 
Q 422 1150 422 2328 
Q 422 3509 836 4129 
Q 1250 4750 2034 4750 
z
" transform="scale(0.015625)"/>
       </defs>
       <use xlink:href="#DejaVuSans-2212"/>
       <use xlink:href="#DejaVuSans-38" x="83.789062"/>
       <use xlink:href="#DejaVuSans-30" x="147.412109"/>
      </g>
     </g>
    </g>
    <g id="ytick_2">
     <g id="line2d_5">
      <g>
       <use xlink:href="#md8f7d43139" x="216" y="386.819272" style="stroke: #000000; stroke-width: 0.8"/>
      </g>
     </g>
     <g id="text_2">
      <!-- −60 -->
      <g transform="translate(187.895312 390.618491) scale(0.1 -0.1)">
       <defs>
        <path id="DejaVuSans-36" d="M 2113 2584 
Q 1688 2584 1439 2293 
Q 1191 2003 1191 1497 
Q 1191 994 1439 701 
Q 1688 409 2113 409 
Q 2538 409 2786 701 
Q 3034 994 3034 1497 
Q 3034 2003 2786 2293 
Q 2538 2584 2113 2584 
z
M 3366 4563 
L 3366 3988 
Q 3128 4100 2886 4159 
Q 2644 4219 2406 4219 
Q 1781 4219 1451 3797 
Q 1122 3375 1075 2522 
Q 1259 2794 1537 2939 
Q 1816 3084 2150 3084 
Q 2853 3084 3261 2657 
Q 3669 2231 3669 1497 
Q 3669 778 3244 343 
Q 2819 -91 2113 -91 
Q 1303 -91 875 529 
Q 447 1150 447 2328 
Q 447 3434 972 4092 
Q 1497 4750 2381 4750 
Q 2619 4750 2861 4703 
Q 3103 4656 3366 4563 
z
" transform="scale(0.015625)"/>
       </defs>
       <use xlink:href="#DejaVuSans-2212"/>
       <use xlink:href="#DejaVuSans-36" x="83.789062"/>
       <use xlink:href="#DejaVuSans-30" x="147.412109"/>
      </g>
     </g>
    </g>
    <g id="ytick_3">
     <g id="line2d_6">
      <g>
       <use xlink:href="#md8f7d43139" x="216" y="353.605924" style="stroke: #000000; stroke-width: 0.8"/>
      </g>
     </g>
     <g id="text_3">
      <!-- −40 -->
      <g transform="translate(187.895312 357.405143) scale(0.1 -0.1)">
       <defs>
        <path id="DejaVuSans-34" d="M 2419 4116 
L 825 1625 
L 2419 1625 
L 2419 4116 
z
M 2253 4666 
L 3047 4666 
L 3047 1625 
L 3713 1625 
L 3713 1100 
L 3047 1100 
L 3047 0 
L 2419 0 
L 2419 1100 
L 313 1100 
L 313 1709 
L 2253 4666 
z
" transform="scale(0.015625)"/>
       </defs>
       <use xlink:href="#DejaVuSans-2212"/>
       <use xlink:href="#DejaVuSans-34" x="83.789062"/>
       <use xlink:href="#DejaVuSans-30" x="147.412109"/>
      </g>
     </g>
    </g>
    <g id="ytick_4">
     <g id="line2d_7">
      <g>
       <use xlink:href="#md8f7d43139" x="216" y="320.392577" style="stroke: #000000; stroke-width: 0.8"/>
      </g>
     </g>
     <g id="text_4">
      <!-- −20 -->
      <g transform="translate(187.895312 324.191796) scale(0.1 -0.1)">
       <defs>
        <path id="DejaVuSans-32" d="M 1228 531 
L 3431 531 
L 3431 0 
L 469 0 
L 469 531 
Q 828 903 1448 1529 
Q 2069 2156 2228 2338 
Q 2531 2678 2651 2914 
Q 2772 3150 2772 3378 
Q 2772 3750 2511 3984 
Q 2250 4219 1831 4219 
Q 1534 4219 1204 4116 
Q 875 4013 500 3803 
L 500 4441 
Q 881 4594 1212 4672 
Q 1544 4750 1819 4750 
Q 2544 4750 2975 4387 
Q 3406 4025 3406 3419 
Q 3406 3131 3298 2873 
Q 3191 2616 2906 2266 
Q 2828 2175 2409 1742 
Q 1991 1309 1228 531 
z
" transform="scale(0.015625)"/>
       </defs>
       <use xlink:href="#DejaVuSans-2212"/>
       <use xlink:href="#DejaVuSans-32" x="83.789062"/>
       <use xlink:href="#DejaVuSans-30" x="147.412109"/>
      </g>
     </g>
    </g>
    <g id="ytick_5">
     <g id="line2d_8">
      <g>
       <use xlink:href="#md8f7d43139" x="216" y="287.179229" style="stroke: #000000; stroke-width: 0.8"/>
      </g>
     </g>
     <g id="text_5">
      <!-- 0 -->
      <g transform="translate(202.6375 290.978448) scale(0.1 -0.1)">
       <use xlink:href="#DejaVuSans-30"/>
      </g>
     </g>
    </g>
    <g id="ytick_6">
     <g id="line2d_9">
      <g>
       <use xlink:href="#md8f7d43139" x="216" y="253.965882" style="stroke: #000000; stroke-width: 0.8"/>
      </g>
     </g>
     <g id="text_6">
      <!-- 20 -->
      <g transform="translate(196.275 257.7651) scale(0.1 -0.1)">
       <use xlink:href="#DejaVuSans-32"/>
       <use xlink:href="#DejaVuSans-30" x="63.623047"/>
      </g>
     </g>
    </g>
    <g id="ytick_7">
     <g id="line2d_10">
      <g>
       <use xlink:href="#md8f7d43139" x="216" y="220.752534" style="stroke: #000000; stroke-width: 0.8"/>
      </g>
     </g>
     <g id="text_7">
      <!-- 40 -->
      <g transform="translate(196.275 224.551753) scale(0.1 -0.1)">
       <use xlink:href="#DejaVuSans-34"/>
       <use xlink:href="#DejaVuSans-30" x="63.623047"/>
      </g>
     </g>
    </g>
    <g id="ytick_8">
     <g id="line2d_11">
      <g>
       <use xlink:href="#md8f7d43139" x="216" y="187.539187" style="stroke: #000000; stroke-width: 0.8"/>
      </g>
     </g>
     <g id="text_8">
      <!-- 60 -->
      <g transform="translate(196.275 191.338405) scale(0.1 -0.1)">
       <use xlink:href="#DejaVuSans-36"/>
       <use xlink:href="#DejaVuSans-30" x="63.623047"/>
      </g>
     </g>
    </g>
    <g id="text_9">
     <!-- PC 1 -->
     <g transform="translate(181.815625 313.549504) rotate(-90) scale(0.1 -0.1)">
      <defs>
       <path id="DejaVuSans-50" d="M 1259 4147 
L 1259 2394 
L 2053 2394 
Q 2494 2394 2734 2622 
Q 2975 2850 2975 3272 
Q 2975 3691 2734 3919 
Q 2494 4147 2053 4147 
L 1259 4147 
z
M 628 4666 
L 2053 4666 
Q 2838 4666 3239 4311 
Q 3641 3956 3641 3272 
Q 3641 2581 3239 2228 
Q 2838 1875 2053 1875 
L 1259 1875 
L 1259 0 
L 628 0 
L 628 4666 
z
" transform="scale(0.015625)"/>
       <path id="DejaVuSans-43" d="M 4122 4306 
L 4122 3641 
Q 3803 3938 3442 4084 
Q 3081 4231 2675 4231 
Q 1875 4231 1450 3742 
Q 1025 3253 1025 2328 
Q 1025 1406 1450 917 
Q 1875 428 2675 428 
Q 3081 428 3442 575 
Q 3803 722 4122 1019 
L 4122 359 
Q 3791 134 3420 21 
Q 3050 -91 2638 -91 
Q 1578 -91 968 557 
Q 359 1206 359 2328 
Q 359 3453 968 4101 
Q 1578 4750 2638 4750 
Q 3056 4750 3426 4639 
Q 3797 4528 4122 4306 
z
" transform="scale(0.015625)"/>
       <path id="DejaVuSans-20" transform="scale(0.015625)"/>
       <path id="DejaVuSans-31" d="M 794 531 
L 1825 531 
L 1825 4091 
L 703 3866 
L 703 4441 
L 1819 4666 
L 2450 4666 
L 2450 531 
L 3481 531 
L 3481 0 
L 794 0 
L 794 531 
z
" transform="scale(0.015625)"/>
      </defs>
      <use xlink:href="#DejaVuSans-50"/>
      <use xlink:href="#DejaVuSans-43" x="60.302734"/>
      <use xlink:href="#DejaVuSans-20" x="130.126953"/>
      <use xlink:href="#DejaVuSans-31" x="161.914062"/>
     </g>
    </g>
   </g>
   <g id="line2d_12">
    <path d="M 276.872727 351.156423 
L 288.92471 366.473734 
L 301.385235 364.735786 
L 313.84576 367.541159 
L 326.306284 369.430999 
L 338.766809 368.186715 
L 351.431605 370.34216 
L 363.892129 367.724543 
L 376.352654 362.434346 
L 388.813179 364.606243 
L 401.273703 369.52774 
L 413.938499 356.223479 
L 425.990482 354.668035 
L 438.042465 345.830263 
L 450.50299 335.299395 
L 462.963514 323.751481 
L 475.424039 299.469346 
L 487.884564 295.436449 
L 500.549359 295.077052 
L 513.009884 302.821063 
L 525.470409 318.009317 
L 537.930933 307.612716 
L 550.391458 313.000697 
L 563.056254 303.422068 
L 575.108237 290.051359 
L 587.16022 283.748335 
L 599.620744 277.949178 
L 612.081269 270.222293 
L 624.541794 279.725537 
L 637.002318 284.648057 
L 649.667114 281.777 
L 662.127639 291.275336 
L 674.588164 287.204045 
L 687.048688 269.481692 
L 699.509213 278.549495 
L 712.174009 269.02424 
L 724.225991 264.989285 
L 736.277974 245.434867 
L 748.738499 252.087622 
L 761.199024 255.946622 
L 773.659549 252.249926 
L 786.120073 255.517978 
L 798.784869 251.121039 
L 811.245394 260.817981 
L 823.705918 286.973814 
L 836.166443 301.169449 
L 848.626968 306.556471 
L 861.291763 317.88686 
L 873.343746 335.582377 
L 885.395729 341.525105 
L 897.856254 325.16697 
L 910.316779 316.540944 
L 922.777303 293.115043 
L 935.237828 276.148107 
L 947.902624 258.375864 
L 960.363148 261.662968 
L 972.823673 263.020828 
L 985.284198 259.682788 
L 997.744722 272.315385 
L 1010.409518 267.875303 
L 1022.461501 274.013612 
L 1034.513484 287.516612 
L 1046.974009 289.633499 
L 1059.434533 300.43604 
L 1071.895058 324.972158 
L 1084.355583 342.700332 
L 1097.020378 374.302761 
L 1109.480903 408.01361 
L 1121.941428 429.991771 
L 1134.401952 431.737441 
L 1146.862477 434.861176 
L 1159.527273 417.682875 
L 1171.579256 415.879988 
L 1183.631239 393.915143 
L 1196.091763 397.818279 
L 1208.552288 389.877884 
L 1221.012813 385.522129 
L 1233.473337 376.783341 
L 1246.138133 372.115704 
L 1258.598658 364.386591 
L 1271.059182 377.2604 
L 1283.519707 384.570342 
L 1295.980232 376.957178 
L 1308.645027 367.648574 
L 1320.69701 349.336616 
L 1332.748993 315.618529 
L 1345.209518 306.379888 
L 1357.670043 298.603198 
L 1370.130567 279.627048 
L 1382.591092 254.867718 
L 1395.255888 231.812667 
L 1407.716412 214.135204 
L 1420.176937 208.403981 
L 1432.637462 184.425828 
L 1445.097987 183.046134 
L 1457.762782 171.338583 
L 1469.814765 187.116671 
L 1481.866748 195.932201 
L 1494.327273 198.733684 
" clip-path="url(#p4042085647)" style="fill: none; stroke: #1f77b4; stroke-width: 1.5; stroke-linecap: square"/>
   </g>
   <g id="line2d_13">
    <path d="M 276.872727 350.122282 
L 288.92471 342.869982 
L 301.385235 360.493908 
L 313.84576 366.230358 
L 326.306284 363.968967 
L 338.766809 362.157553 
L 351.431605 363.763943 
L 363.892129 364.516223 
L 376.352654 361.910617 
L 388.813179 357.95606 
L 401.273703 361.954664 
L 413.938499 365.792752 
L 425.990482 350.804068 
L 438.042465 348.341523 
L 450.50299 334.821208 
L 462.963514 319.792575 
L 475.424039 309.768706 
L 487.884564 286.371656 
L 500.549359 284.65188 
L 513.009884 282.984684 
L 525.470409 293.555208 
L 537.930933 308.589044 
L 550.391458 302.289434 
L 563.056254 313.814872 
L 575.108237 306.158518 
L 587.16022 291.263947 
L 599.620744 294.087175 
L 612.081269 285.297305 
L 624.541794 276.356514 
L 637.002318 280.86029 
L 649.667114 285.734592 
L 662.127639 279.924295 
L 674.588164 289.134152 
L 687.048688 282.010857 
L 699.509213 269.419132 
L 712.174009 276.430205 
L 724.225991 269.583582 
L 736.277974 272.19769 
L 748.738499 256.253218 
L 761.199024 261.218822 
L 773.659549 264.924507 
L 786.120073 264.38915 
L 798.784869 265.596065 
L 811.245394 259.612761 
L 823.705918 272.659153 
L 836.166443 299.452463 
L 848.626968 311.484316 
L 861.291763 314.371767 
L 873.343746 327.421016 
L 885.395729 343.39359 
L 897.856254 340.485478 
L 910.316779 312.870581 
L 922.777303 311.040956 
L 935.237828 287.126797 
L 947.902624 270.077488 
L 960.363148 246.962177 
L 972.823673 253.476995 
L 985.284198 254.637386 
L 997.744722 257.021545 
L 1010.409518 273.601441 
L 1022.461501 268.399668 
L 1034.513484 282.350785 
L 1046.974009 290.982142 
L 1059.434533 289.125049 
L 1071.895058 304.402667 
L 1084.355583 325.340095 
L 1097.020378 342.702081 
L 1109.480903 380.037208 
L 1121.941428 415.57937 
L 1134.401952 435.684706 
L 1146.862477 433.715223 
L 1159.527273 431.525866 
L 1171.579256 413.551085 
L 1183.631239 411.735985 
L 1196.091763 393.729631 
L 1208.552288 395.817083 
L 1221.012813 381.901721 
L 1233.473337 369.826737 
L 1246.138133 363.44285 
L 1258.598658 362.553962 
L 1271.059182 355.829407 
L 1283.519707 372.152712 
L 1295.980232 376.754244 
L 1308.645027 368.686333 
L 1320.69701 359.243878 
L 1332.748993 336.739328 
L 1345.209518 307.70833 
L 1357.670043 298.214838 
L 1370.130567 290.783323 
L 1382.591092 271.24221 
L 1395.255888 247.96217 
L 1407.716412 226.886235 
L 1420.176937 209.975852 
L 1432.637462 196.249784 
L 1445.097987 169.538002 
L 1457.762782 169.767453 
L 1469.814765 168.861176 
L 1481.866748 190.43081 
L 1494.327273 209.958291 
" clip-path="url(#p4042085647)" style="fill: none; stroke: #ff7f0e; stroke-width: 1.5; stroke-linecap: square"/>
   </g>
   <g id="patch_3">
    <path d="M 216 449.025882 
L 216 155.52 
" style="fill: none; stroke: #000000; stroke-width: 0.8; stroke-linejoin: miter; stroke-linecap: square"/>
   </g>
   <g id="patch_4">
    <path d="M 1555.2 449.025882 
L 1555.2 155.52 
" style="fill: none; stroke: #000000; stroke-width: 0.8; stroke-linejoin: miter; stroke-linecap: square"/>
   </g>
   <g id="patch_5">
    <path d="M 216 449.025882 
L 1555.2 449.025882 
" style="fill: none; stroke: #000000; stroke-width: 0.8; stroke-linejoin: miter; stroke-linecap: square"/>
   </g>
   <g id="patch_6">
    <path d="M 216 155.52 
L 1555.2 155.52 
" style="fill: none; stroke: #000000; stroke-width: 0.8; stroke-linejoin: miter; stroke-linecap: square"/>
   </g>
   <g id="legend_1">
    <g id="patch_7">
     <path d="M 1562.2 192.87625 
L 1653.459375 192.87625 
Q 1655.459375 192.87625 1655.459375 190.87625 
L 1655.459375 162.52 
Q 1655.459375 160.52 1653.459375 160.52 
L 1562.2 160.52 
Q 1560.2 160.52 1560.2 162.52 
L 1560.2 190.87625 
Q 1560.2 192.87625 1562.2 192.87625 
z
" style="fill: #ffffff; opacity: 0.8; stroke: #cccccc; stroke-linejoin: miter"/>
    </g>
    <g id="line2d_14">
     <path d="M 1564.2 168.618438 
L 1574.2 168.618438 
L 1584.2 168.618438 
" style="fill: none; stroke: #1f77b4; stroke-width: 1.5; stroke-linecap: square"/>
    </g>
    <g id="text_10">
     <!-- Target -->
     <g transform="translate(1592.2 172.118438) scale(0.1 -0.1)">
      <defs>
       <path id="DejaVuSans-54" d="M -19 4666 
L 3928 4666 
L 3928 4134 
L 2272 4134 
L 2272 0 
L 1638 0 
L 1638 4134 
L -19 4134 
L -19 4666 
z
" transform="scale(0.015625)"/>
       <path id="DejaVuSans-61" d="M 2194 1759 
Q 1497 1759 1228 1600 
Q 959 1441 959 1056 
Q 959 750 1161 570 
Q 1363 391 1709 391 
Q 2188 391 2477 730 
Q 2766 1069 2766 1631 
L 2766 1759 
L 2194 1759 
z
M 3341 1997 
L 3341 0 
L 2766 0 
L 2766 531 
Q 2569 213 2275 61 
Q 1981 -91 1556 -91 
Q 1019 -91 701 211 
Q 384 513 384 1019 
Q 384 1609 779 1909 
Q 1175 2209 1959 2209 
L 2766 2209 
L 2766 2266 
Q 2766 2663 2505 2880 
Q 2244 3097 1772 3097 
Q 1472 3097 1187 3025 
Q 903 2953 641 2809 
L 641 3341 
Q 956 3463 1253 3523 
Q 1550 3584 1831 3584 
Q 2591 3584 2966 3190 
Q 3341 2797 3341 1997 
z
" transform="scale(0.015625)"/>
       <path id="DejaVuSans-72" d="M 2631 2963 
Q 2534 3019 2420 3045 
Q 2306 3072 2169 3072 
Q 1681 3072 1420 2755 
Q 1159 2438 1159 1844 
L 1159 0 
L 581 0 
L 581 3500 
L 1159 3500 
L 1159 2956 
Q 1341 3275 1631 3429 
Q 1922 3584 2338 3584 
Q 2397 3584 2469 3576 
Q 2541 3569 2628 3553 
L 2631 2963 
z
" transform="scale(0.015625)"/>
       <path id="DejaVuSans-67" d="M 2906 1791 
Q 2906 2416 2648 2759 
Q 2391 3103 1925 3103 
Q 1463 3103 1205 2759 
Q 947 2416 947 1791 
Q 947 1169 1205 825 
Q 1463 481 1925 481 
Q 2391 481 2648 825 
Q 2906 1169 2906 1791 
z
M 3481 434 
Q 3481 -459 3084 -895 
Q 2688 -1331 1869 -1331 
Q 1566 -1331 1297 -1286 
Q 1028 -1241 775 -1147 
L 775 -588 
Q 1028 -725 1275 -790 
Q 1522 -856 1778 -856 
Q 2344 -856 2625 -561 
Q 2906 -266 2906 331 
L 2906 616 
Q 2728 306 2450 153 
Q 2172 0 1784 0 
Q 1141 0 747 490 
Q 353 981 353 1791 
Q 353 2603 747 3093 
Q 1141 3584 1784 3584 
Q 2172 3584 2450 3431 
Q 2728 3278 2906 2969 
L 2906 3500 
L 3481 3500 
L 3481 434 
z
" transform="scale(0.015625)"/>
       <path id="DejaVuSans-65" d="M 3597 1894 
L 3597 1613 
L 953 1613 
Q 991 1019 1311 708 
Q 1631 397 2203 397 
Q 2534 397 2845 478 
Q 3156 559 3463 722 
L 3463 178 
Q 3153 47 2828 -22 
Q 2503 -91 2169 -91 
Q 1331 -91 842 396 
Q 353 884 353 1716 
Q 353 2575 817 3079 
Q 1281 3584 2069 3584 
Q 2775 3584 3186 3129 
Q 3597 2675 3597 1894 
z
M 3022 2063 
Q 3016 2534 2758 2815 
Q 2500 3097 2075 3097 
Q 1594 3097 1305 2825 
Q 1016 2553 972 2059 
L 3022 2063 
z
" transform="scale(0.015625)"/>
       <path id="DejaVuSans-74" d="M 1172 4494 
L 1172 3500 
L 2356 3500 
L 2356 3053 
L 1172 3053 
L 1172 1153 
Q 1172 725 1289 603 
Q 1406 481 1766 481 
L 2356 481 
L 2356 0 
L 1766 0 
Q 1100 0 847 248 
Q 594 497 594 1153 
L 594 3053 
L 172 3053 
L 172 3500 
L 594 3500 
L 594 4494 
L 1172 4494 
z
" transform="scale(0.015625)"/>
      </defs>
      <use xlink:href="#DejaVuSans-54"/>
      <use xlink:href="#DejaVuSans-61" x="44.583984"/>
      <use xlink:href="#DejaVuSans-72" x="105.863281"/>
      <use xlink:href="#DejaVuSans-67" x="145.226562"/>
      <use xlink:href="#DejaVuSans-65" x="208.703125"/>
      <use xlink:href="#DejaVuSans-74" x="270.226562"/>
     </g>
    </g>
    <g id="line2d_15">
     <path d="M 1564.2 183.296562 
L 1574.2 183.296562 
L 1584.2 183.296562 
" style="fill: none; stroke: #ff7f0e; stroke-width: 1.5; stroke-linecap: square"/>
    </g>
    <g id="text_11">
     <!-- LIM (tau=1) -->
     <g transform="translate(1592.2 186.796562) scale(0.1 -0.1)">
      <defs>
       <path id="DejaVuSans-4c" d="M 628 4666 
L 1259 4666 
L 1259 531 
L 3531 531 
L 3531 0 
L 628 0 
L 628 4666 
z
" transform="scale(0.015625)"/>
       <path id="DejaVuSans-49" d="M 628 4666 
L 1259 4666 
L 1259 0 
L 628 0 
L 628 4666 
z
" transform="scale(0.015625)"/>
       <path id="DejaVuSans-4d" d="M 628 4666 
L 1569 4666 
L 2759 1491 
L 3956 4666 
L 4897 4666 
L 4897 0 
L 4281 0 
L 4281 4097 
L 3078 897 
L 2444 897 
L 1241 4097 
L 1241 0 
L 628 0 
L 628 4666 
z
" transform="scale(0.015625)"/>
       <path id="DejaVuSans-28" d="M 1984 4856 
Q 1566 4138 1362 3434 
Q 1159 2731 1159 2009 
Q 1159 1288 1364 580 
Q 1569 -128 1984 -844 
L 1484 -844 
Q 1016 -109 783 600 
Q 550 1309 550 2009 
Q 550 2706 781 3412 
Q 1013 4119 1484 4856 
L 1984 4856 
z
" transform="scale(0.015625)"/>
       <path id="DejaVuSans-75" d="M 544 1381 
L 544 3500 
L 1119 3500 
L 1119 1403 
Q 1119 906 1312 657 
Q 1506 409 1894 409 
Q 2359 409 2629 706 
Q 2900 1003 2900 1516 
L 2900 3500 
L 3475 3500 
L 3475 0 
L 2900 0 
L 2900 538 
Q 2691 219 2414 64 
Q 2138 -91 1772 -91 
Q 1169 -91 856 284 
Q 544 659 544 1381 
z
M 1991 3584 
L 1991 3584 
z
" transform="scale(0.015625)"/>
       <path id="DejaVuSans-3d" d="M 678 2906 
L 4684 2906 
L 4684 2381 
L 678 2381 
L 678 2906 
z
M 678 1631 
L 4684 1631 
L 4684 1100 
L 678 1100 
L 678 1631 
z
" transform="scale(0.015625)"/>
       <path id="DejaVuSans-29" d="M 513 4856 
L 1013 4856 
Q 1481 4119 1714 3412 
Q 1947 2706 1947 2009 
Q 1947 1309 1714 600 
Q 1481 -109 1013 -844 
L 513 -844 
Q 928 -128 1133 580 
Q 1338 1288 1338 2009 
Q 1338 2731 1133 3434 
Q 928 4138 513 4856 
z
" transform="scale(0.015625)"/>
      </defs>
      <use xlink:href="#DejaVuSans-4c"/>
      <use xlink:href="#DejaVuSans-49" x="55.712891"/>
      <use xlink:href="#DejaVuSans-4d" x="85.205078"/>
      <use xlink:href="#DejaVuSans-20" x="171.484375"/>
      <use xlink:href="#DejaVuSans-28" x="203.271484"/>
      <use xlink:href="#DejaVuSans-74" x="242.285156"/>
      <use xlink:href="#DejaVuSans-61" x="281.494141"/>
      <use xlink:href="#DejaVuSans-75" x="342.773438"/>
      <use xlink:href="#DejaVuSans-3d" x="406.152344"/>
      <use xlink:href="#DejaVuSans-31" x="489.941406"/>
      <use xlink:href="#DejaVuSans-29" x="553.564453"/>
     </g>
    </g>
   </g>
  </g>
  <g id="axes_2">
   <g id="patch_8">
    <path d="M 216 801.232941 
L 1555.2 801.232941 
L 1555.2 507.727059 
L 216 507.727059 
z
" style="fill: #ffffff"/>
   </g>
   <g id="matplotlib.axis_3">
    <g id="xtick_4">
     <g id="line2d_16">
      <g>
       <use xlink:href="#m88e8a646c0" x="258.896888" y="801.232941" style="stroke: #000000; stroke-width: 0.8"/>
      </g>
     </g>
    </g>
    <g id="xtick_5">
     <g id="line2d_17">
      <g>
       <use xlink:href="#m88e8a646c0" x="706.250153" y="801.232941" style="stroke: #000000; stroke-width: 0.8"/>
      </g>
     </g>
    </g>
    <g id="xtick_6">
     <g id="line2d_18">
      <g>
       <use xlink:href="#m88e8a646c0" x="1153.603417" y="801.232941" style="stroke: #000000; stroke-width: 0.8"/>
      </g>
     </g>
    </g>
   </g>
   <g id="matplotlib.axis_4">
    <g id="ytick_9">
     <g id="line2d_19">
      <g>
       <use xlink:href="#md8f7d43139" x="216" y="765.096185" style="stroke: #000000; stroke-width: 0.8"/>
      </g>
     </g>
     <g id="text_12">
      <!-- −40 -->
      <g transform="translate(187.895312 768.895404) scale(0.1 -0.1)">
       <use xlink:href="#DejaVuSans-2212"/>
       <use xlink:href="#DejaVuSans-34" x="83.789062"/>
       <use xlink:href="#DejaVuSans-30" x="147.412109"/>
      </g>
     </g>
    </g>
    <g id="ytick_10">
     <g id="line2d_20">
      <g>
       <use xlink:href="#md8f7d43139" x="216" y="727.685597" style="stroke: #000000; stroke-width: 0.8"/>
      </g>
     </g>
     <g id="text_13">
      <!-- −30 -->
      <g transform="translate(187.895312 731.484815) scale(0.1 -0.1)">
       <defs>
        <path id="DejaVuSans-33" d="M 2597 2516 
Q 3050 2419 3304 2112 
Q 3559 1806 3559 1356 
Q 3559 666 3084 287 
Q 2609 -91 1734 -91 
Q 1441 -91 1130 -33 
Q 819 25 488 141 
L 488 750 
Q 750 597 1062 519 
Q 1375 441 1716 441 
Q 2309 441 2620 675 
Q 2931 909 2931 1356 
Q 2931 1769 2642 2001 
Q 2353 2234 1838 2234 
L 1294 2234 
L 1294 2753 
L 1863 2753 
Q 2328 2753 2575 2939 
Q 2822 3125 2822 3475 
Q 2822 3834 2567 4026 
Q 2313 4219 1838 4219 
Q 1578 4219 1281 4162 
Q 984 4106 628 3988 
L 628 4550 
Q 988 4650 1302 4700 
Q 1616 4750 1894 4750 
Q 2613 4750 3031 4423 
Q 3450 4097 3450 3541 
Q 3450 3153 3228 2886 
Q 3006 2619 2597 2516 
z
" transform="scale(0.015625)"/>
       </defs>
       <use xlink:href="#DejaVuSans-2212"/>
       <use xlink:href="#DejaVuSans-33" x="83.789062"/>
       <use xlink:href="#DejaVuSans-30" x="147.412109"/>
      </g>
     </g>
    </g>
    <g id="ytick_11">
     <g id="line2d_21">
      <g>
       <use xlink:href="#md8f7d43139" x="216" y="690.275008" style="stroke: #000000; stroke-width: 0.8"/>
      </g>
     </g>
     <g id="text_14">
      <!-- −20 -->
      <g transform="translate(187.895312 694.074226) scale(0.1 -0.1)">
       <use xlink:href="#DejaVuSans-2212"/>
       <use xlink:href="#DejaVuSans-32" x="83.789062"/>
       <use xlink:href="#DejaVuSans-30" x="147.412109"/>
      </g>
     </g>
    </g>
    <g id="ytick_12">
     <g id="line2d_22">
      <g>
       <use xlink:href="#md8f7d43139" x="216" y="652.864419" style="stroke: #000000; stroke-width: 0.8"/>
      </g>
     </g>
     <g id="text_15">
      <!-- −10 -->
      <g transform="translate(187.895312 656.663637) scale(0.1 -0.1)">
       <use xlink:href="#DejaVuSans-2212"/>
       <use xlink:href="#DejaVuSans-31" x="83.789062"/>
       <use xlink:href="#DejaVuSans-30" x="147.412109"/>
      </g>
     </g>
    </g>
    <g id="ytick_13">
     <g id="line2d_23">
      <g>
       <use xlink:href="#md8f7d43139" x="216" y="615.45383" style="stroke: #000000; stroke-width: 0.8"/>
      </g>
     </g>
     <g id="text_16">
      <!-- 0 -->
      <g transform="translate(202.6375 619.253048) scale(0.1 -0.1)">
       <use xlink:href="#DejaVuSans-30"/>
      </g>
     </g>
    </g>
    <g id="ytick_14">
     <g id="line2d_24">
      <g>
       <use xlink:href="#md8f7d43139" x="216" y="578.043241" style="stroke: #000000; stroke-width: 0.8"/>
      </g>
     </g>
     <g id="text_17">
      <!-- 10 -->
      <g transform="translate(196.275 581.842459) scale(0.1 -0.1)">
       <use xlink:href="#DejaVuSans-31"/>
       <use xlink:href="#DejaVuSans-30" x="63.623047"/>
      </g>
     </g>
    </g>
    <g id="ytick_15">
     <g id="line2d_25">
      <g>
       <use xlink:href="#md8f7d43139" x="216" y="540.632652" style="stroke: #000000; stroke-width: 0.8"/>
      </g>
     </g>
     <g id="text_18">
      <!-- 20 -->
      <g transform="translate(196.275 544.43187) scale(0.1 -0.1)">
       <use xlink:href="#DejaVuSans-32"/>
       <use xlink:href="#DejaVuSans-30" x="63.623047"/>
      </g>
     </g>
    </g>
    <g id="text_19">
     <!-- PC 2 -->
     <g transform="translate(181.815625 665.756563) rotate(-90) scale(0.1 -0.1)">
      <use xlink:href="#DejaVuSans-50"/>
      <use xlink:href="#DejaVuSans-43" x="60.302734"/>
      <use xlink:href="#DejaVuSans-20" x="130.126953"/>
      <use xlink:href="#DejaVuSans-32" x="161.914062"/>
     </g>
    </g>
   </g>
   <g id="line2d_26">
    <path d="M 276.872727 546.533399 
L 288.92471 563.415847 
L 301.385235 582.341511 
L 313.84576 575.889621 
L 326.306284 596.649963 
L 338.766809 609.029327 
L 351.431605 625.054739 
L 363.892129 623.802049 
L 376.352654 646.064269 
L 388.813179 645.237696 
L 401.273703 667.244902 
L 413.938499 674.546738 
L 425.990482 695.698896 
L 438.042465 711.459704 
L 450.50299 729.521112 
L 462.963514 709.339439 
L 475.424039 709.356714 
L 487.884564 718.478877 
L 500.549359 705.563473 
L 513.009884 696.385096 
L 525.470409 715.345999 
L 537.930933 667.487313 
L 550.391458 655.205866 
L 563.056254 625.310454 
L 575.108237 665.383984 
L 587.16022 696.030733 
L 599.620744 697.181568 
L 612.081269 703.539452 
L 624.541794 690.376974 
L 637.002318 686.967723 
L 649.667114 683.722396 
L 662.127639 665.551619 
L 674.588164 654.726589 
L 687.048688 628.620655 
L 699.509213 679.368412 
L 712.174009 645.260808 
L 724.225991 637.233129 
L 736.277974 592.560278 
L 748.738499 601.948395 
L 761.199024 590.238576 
L 773.659549 604.861282 
L 786.120073 622.115929 
L 798.784869 618.194985 
L 811.245394 603.4083 
L 823.705918 584.384819 
L 836.166443 551.542052 
L 848.626968 568.534361 
L 861.291763 567.815791 
L 873.343746 596.258583 
L 885.395729 652.128381 
L 897.856254 682.210504 
L 910.316779 687.9533 
L 922.777303 672.58633 
L 935.237828 658.441382 
L 947.902624 676.059065 
L 960.363148 685.534557 
L 972.823673 676.357722 
L 985.284198 676.290163 
L 997.744722 695.430066 
L 1010.409518 702.446514 
L 1022.461501 662.246714 
L 1034.513484 680.943674 
L 1046.974009 641.776097 
L 1059.434533 582.200421 
L 1071.895058 568.731551 
L 1084.355583 564.688296 
L 1097.020378 527.30712 
L 1109.480903 535.587565 
L 1121.941428 532.175567 
L 1134.401952 521.068235 
L 1146.862477 548.110845 
L 1159.527273 565.192331 
L 1171.579256 618.401772 
L 1183.631239 644.449211 
L 1196.091763 647.934934 
L 1208.552288 663.999654 
L 1221.012813 695.343063 
L 1233.473337 725.042677 
L 1246.138133 733.928705 
L 1258.598658 765.986026 
L 1271.059182 787.891765 
L 1283.519707 758.900528 
L 1295.980232 720.631666 
L 1308.645027 705.908867 
L 1320.69701 714.364988 
L 1332.748993 673.656081 
L 1345.209518 703.399261 
L 1357.670043 725.100639 
L 1370.130567 736.82826 
L 1382.591092 720.480386 
L 1395.255888 720.702272 
L 1407.716412 714.706187 
L 1420.176937 730.835243 
L 1432.637462 694.522837 
L 1445.097987 683.451675 
L 1457.762782 650.483554 
L 1469.814765 581.647426 
L 1481.866748 568.435328 
L 1494.327273 597.200587 
" clip-path="url(#pd9c159fa22)" style="fill: none; stroke: #1f77b4; stroke-width: 1.5; stroke-linecap: square"/>
   </g>
   <g id="line2d_27">
    <path d="M 276.872727 555.252285 
L 288.92471 569.138981 
L 301.385235 585.538614 
L 313.84576 596.185665 
L 326.306284 591.395197 
L 338.766809 608.976502 
L 351.431605 613.257351 
L 363.892129 630.984132 
L 376.352654 631.172416 
L 388.813179 651.09531 
L 401.273703 642.164642 
L 413.938499 663.121969 
L 425.990482 672.044923 
L 438.042465 692.1673 
L 450.50299 714.298015 
L 462.963514 733.161518 
L 475.424039 715.190274 
L 487.884564 716.839189 
L 500.549359 718.495089 
L 513.009884 707.535912 
L 525.470409 696.367507 
L 537.930933 707.218361 
L 550.391458 659.047372 
L 563.056254 644.966595 
L 575.108237 620.605115 
L 587.16022 664.769432 
L 599.620744 687.78725 
L 612.081269 683.677942 
L 624.541794 691.566277 
L 637.002318 680.818738 
L 649.667114 676.336822 
L 662.127639 679.781729 
L 674.588164 665.464751 
L 687.048688 659.486184 
L 699.509213 627.50485 
L 712.174009 667.554101 
L 724.225991 630.069237 
L 736.277974 624.03938 
L 748.738499 587.561062 
L 761.199024 596.727526 
L 773.659549 584.829301 
L 786.120073 597.680369 
L 798.784869 610.991418 
L 811.245394 609.392649 
L 823.705918 597.953923 
L 836.166443 582.014676 
L 848.626968 556.52056 
L 861.291763 572.457522 
L 873.343746 575.142958 
L 885.395729 596.217126 
L 897.856254 647.749144 
L 910.316779 681.505659 
L 922.777303 677.731042 
L 935.237828 663.915423 
L 947.902624 651.284176 
L 960.363148 667.490695 
L 972.823673 675.524823 
L 985.284198 665.992493 
L 997.744722 655.704617 
L 1010.409518 671.462734 
L 1022.461501 685.535998 
L 1034.513484 645.180664 
L 1046.974009 653.489599 
L 1059.434533 627.090077 
L 1071.895058 576.734889 
L 1084.355583 563.645232 
L 1097.020378 560.765197 
L 1109.480903 526.425557 
L 1121.941428 536.504806 
L 1134.401952 538.227837 
L 1146.862477 529.272744 
L 1159.527273 562.424347 
L 1171.579256 577.954411 
L 1183.631239 626.977149 
L 1196.091763 661.504493 
L 1208.552288 661.819005 
L 1221.012813 672.482394 
L 1233.473337 699.667799 
L 1246.138133 723.36547 
L 1258.598658 731.954904 
L 1271.059182 757.483902 
L 1283.519707 771.915044 
L 1295.980232 749.623574 
L 1308.645027 713.985751 
L 1320.69701 700.6444 
L 1332.748993 715.110484 
L 1345.209518 677.496077 
L 1357.670043 696.469624 
L 1370.130567 710.645008 
L 1382.591092 721.822425 
L 1395.255888 707.046174 
L 1407.716412 704.520277 
L 1420.176937 699.300456 
L 1432.637462 716.514274 
L 1445.097987 684.766035 
L 1457.762782 675.567022 
L 1469.814765 635.207565 
L 1481.866748 565.992185 
L 1494.327273 559.571234 
" clip-path="url(#pd9c159fa22)" style="fill: none; stroke: #ff7f0e; stroke-width: 1.5; stroke-linecap: square"/>
   </g>
   <g id="patch_9">
    <path d="M 216 801.232941 
L 216 507.727059 
" style="fill: none; stroke: #000000; stroke-width: 0.8; stroke-linejoin: miter; stroke-linecap: square"/>
   </g>
   <g id="patch_10">
    <path d="M 1555.2 801.232941 
L 1555.2 507.727059 
" style="fill: none; stroke: #000000; stroke-width: 0.8; stroke-linejoin: miter; stroke-linecap: square"/>
   </g>
   <g id="patch_11">
    <path d="M 216 801.232941 
L 1555.2 801.232941 
" style="fill: none; stroke: #000000; stroke-width: 0.8; stroke-linejoin: miter; stroke-linecap: square"/>
   </g>
   <g id="patch_12">
    <path d="M 216 507.727059 
L 1555.2 507.727059 
" style="fill: none; stroke: #000000; stroke-width: 0.8; stroke-linejoin: miter; stroke-linecap: square"/>
   </g>
  </g>
  <g id="axes_3">
   <g id="patch_13">
    <path d="M 216 1153.44 
L 1555.2 1153.44 
L 1555.2 859.934118 
L 216 859.934118 
z
" style="fill: #ffffff"/>
   </g>
   <g id="matplotlib.axis_5">
    <g id="xtick_7">
     <g id="line2d_28">
      <g>
       <use xlink:href="#m88e8a646c0" x="258.896888" y="1153.44" style="stroke: #000000; stroke-width: 0.8"/>
      </g>
     </g>
     <g id="text_20">
      <!-- 0961 -->
      <g transform="translate(246.171888 1168.038438) scale(0.1 -0.1)">
       <defs>
        <path id="DejaVuSans-39" d="M 703 97 
L 703 672 
Q 941 559 1184 500 
Q 1428 441 1663 441 
Q 2288 441 2617 861 
Q 2947 1281 2994 2138 
Q 2813 1869 2534 1725 
Q 2256 1581 1919 1581 
Q 1219 1581 811 2004 
Q 403 2428 403 3163 
Q 403 3881 828 4315 
Q 1253 4750 1959 4750 
Q 2769 4750 3195 4129 
Q 3622 3509 3622 2328 
Q 3622 1225 3098 567 
Q 2575 -91 1691 -91 
Q 1453 -91 1209 -44 
Q 966 3 703 97 
z
M 1959 2075 
Q 2384 2075 2632 2365 
Q 2881 2656 2881 3163 
Q 2881 3666 2632 3958 
Q 2384 4250 1959 4250 
Q 1534 4250 1286 3958 
Q 1038 3666 1038 3163 
Q 1038 2656 1286 2365 
Q 1534 2075 1959 2075 
z
" transform="scale(0.015625)"/>
       </defs>
       <use xlink:href="#DejaVuSans-30"/>
       <use xlink:href="#DejaVuSans-39" x="63.623047"/>
       <use xlink:href="#DejaVuSans-36" x="127.246094"/>
       <use xlink:href="#DejaVuSans-31" x="190.869141"/>
      </g>
     </g>
    </g>
    <g id="xtick_8">
     <g id="line2d_29">
      <g>
       <use xlink:href="#m88e8a646c0" x="706.250153" y="1153.44" style="stroke: #000000; stroke-width: 0.8"/>
      </g>
     </g>
     <g id="text_21">
      <!-- 0964 -->
      <g transform="translate(693.525153 1168.038438) scale(0.1 -0.1)">
       <use xlink:href="#DejaVuSans-30"/>
       <use xlink:href="#DejaVuSans-39" x="63.623047"/>
       <use xlink:href="#DejaVuSans-36" x="127.246094"/>
       <use xlink:href="#DejaVuSans-34" x="190.869141"/>
      </g>
     </g>
    </g>
    <g id="xtick_9">
     <g id="line2d_30">
      <g>
       <use xlink:href="#m88e8a646c0" x="1153.603417" y="1153.44" style="stroke: #000000; stroke-width: 0.8"/>
      </g>
     </g>
     <g id="text_22">
      <!-- 0967 -->
      <g transform="translate(1140.878417 1168.038438) scale(0.1 -0.1)">
       <defs>
        <path id="DejaVuSans-37" d="M 525 4666 
L 3525 4666 
L 3525 4397 
L 1831 0 
L 1172 0 
L 2766 4134 
L 525 4134 
L 525 4666 
z
" transform="scale(0.015625)"/>
       </defs>
       <use xlink:href="#DejaVuSans-30"/>
       <use xlink:href="#DejaVuSans-39" x="63.623047"/>
       <use xlink:href="#DejaVuSans-36" x="127.246094"/>
       <use xlink:href="#DejaVuSans-37" x="190.869141"/>
      </g>
     </g>
    </g>
    <g id="text_23">
     <!-- Time -->
     <g transform="translate(873.366406 1181.716563) scale(0.1 -0.1)">
      <defs>
       <path id="DejaVuSans-69" d="M 603 3500 
L 1178 3500 
L 1178 0 
L 603 0 
L 603 3500 
z
M 603 4863 
L 1178 4863 
L 1178 4134 
L 603 4134 
L 603 4863 
z
" transform="scale(0.015625)"/>
       <path id="DejaVuSans-6d" d="M 3328 2828 
Q 3544 3216 3844 3400 
Q 4144 3584 4550 3584 
Q 5097 3584 5394 3201 
Q 5691 2819 5691 2113 
L 5691 0 
L 5113 0 
L 5113 2094 
Q 5113 2597 4934 2840 
Q 4756 3084 4391 3084 
Q 3944 3084 3684 2787 
Q 3425 2491 3425 1978 
L 3425 0 
L 2847 0 
L 2847 2094 
Q 2847 2600 2669 2842 
Q 2491 3084 2119 3084 
Q 1678 3084 1418 2786 
Q 1159 2488 1159 1978 
L 1159 0 
L 581 0 
L 581 3500 
L 1159 3500 
L 1159 2956 
Q 1356 3278 1631 3431 
Q 1906 3584 2284 3584 
Q 2666 3584 2933 3390 
Q 3200 3197 3328 2828 
z
" transform="scale(0.015625)"/>
      </defs>
      <use xlink:href="#DejaVuSans-54"/>
      <use xlink:href="#DejaVuSans-69" x="57.958984"/>
      <use xlink:href="#DejaVuSans-6d" x="85.742188"/>
      <use xlink:href="#DejaVuSans-65" x="183.154297"/>
     </g>
    </g>
   </g>
   <g id="matplotlib.axis_6">
    <g id="ytick_16">
     <g id="line2d_31">
      <g>
       <use xlink:href="#md8f7d43139" x="216" y="1121.217662" style="stroke: #000000; stroke-width: 0.8"/>
      </g>
     </g>
     <g id="text_24">
      <!-- −20 -->
      <g transform="translate(187.895312 1125.01688) scale(0.1 -0.1)">
       <use xlink:href="#DejaVuSans-2212"/>
       <use xlink:href="#DejaVuSans-32" x="83.789062"/>
       <use xlink:href="#DejaVuSans-30" x="147.412109"/>
      </g>
     </g>
    </g>
    <g id="ytick_17">
     <g id="line2d_32">
      <g>
       <use xlink:href="#md8f7d43139" x="216" y="1086.13644" style="stroke: #000000; stroke-width: 0.8"/>
      </g>
     </g>
     <g id="text_25">
      <!-- −10 -->
      <g transform="translate(187.895312 1089.935659) scale(0.1 -0.1)">
       <use xlink:href="#DejaVuSans-2212"/>
       <use xlink:href="#DejaVuSans-31" x="83.789062"/>
       <use xlink:href="#DejaVuSans-30" x="147.412109"/>
      </g>
     </g>
    </g>
    <g id="ytick_18">
     <g id="line2d_33">
      <g>
       <use xlink:href="#md8f7d43139" x="216" y="1051.055218" style="stroke: #000000; stroke-width: 0.8"/>
      </g>
     </g>
     <g id="text_26">
      <!-- 0 -->
      <g transform="translate(202.6375 1054.854437) scale(0.1 -0.1)">
       <use xlink:href="#DejaVuSans-30"/>
      </g>
     </g>
    </g>
    <g id="ytick_19">
     <g id="line2d_34">
      <g>
       <use xlink:href="#md8f7d43139" x="216" y="1015.973996" style="stroke: #000000; stroke-width: 0.8"/>
      </g>
     </g>
     <g id="text_27">
      <!-- 10 -->
      <g transform="translate(196.275 1019.773215) scale(0.1 -0.1)">
       <use xlink:href="#DejaVuSans-31"/>
       <use xlink:href="#DejaVuSans-30" x="63.623047"/>
      </g>
     </g>
    </g>
    <g id="ytick_20">
     <g id="line2d_35">
      <g>
       <use xlink:href="#md8f7d43139" x="216" y="980.892774" style="stroke: #000000; stroke-width: 0.8"/>
      </g>
     </g>
     <g id="text_28">
      <!-- 20 -->
      <g transform="translate(196.275 984.691993) scale(0.1 -0.1)">
       <use xlink:href="#DejaVuSans-32"/>
       <use xlink:href="#DejaVuSans-30" x="63.623047"/>
      </g>
     </g>
    </g>
    <g id="ytick_21">
     <g id="line2d_36">
      <g>
       <use xlink:href="#md8f7d43139" x="216" y="945.811552" style="stroke: #000000; stroke-width: 0.8"/>
      </g>
     </g>
     <g id="text_29">
      <!-- 30 -->
      <g transform="translate(196.275 949.610771) scale(0.1 -0.1)">
       <use xlink:href="#DejaVuSans-33"/>
       <use xlink:href="#DejaVuSans-30" x="63.623047"/>
      </g>
     </g>
    </g>
    <g id="ytick_22">
     <g id="line2d_37">
      <g>
       <use xlink:href="#md8f7d43139" x="216" y="910.730331" style="stroke: #000000; stroke-width: 0.8"/>
      </g>
     </g>
     <g id="text_30">
      <!-- 40 -->
      <g transform="translate(196.275 914.529549) scale(0.1 -0.1)">
       <use xlink:href="#DejaVuSans-34"/>
       <use xlink:href="#DejaVuSans-30" x="63.623047"/>
      </g>
     </g>
    </g>
    <g id="ytick_23">
     <g id="line2d_38">
      <g>
       <use xlink:href="#md8f7d43139" x="216" y="875.649109" style="stroke: #000000; stroke-width: 0.8"/>
      </g>
     </g>
     <g id="text_31">
      <!-- 50 -->
      <g transform="translate(196.275 879.448327) scale(0.1 -0.1)">
       <defs>
        <path id="DejaVuSans-35" d="M 691 4666 
L 3169 4666 
L 3169 4134 
L 1269 4134 
L 1269 2991 
Q 1406 3038 1543 3061 
Q 1681 3084 1819 3084 
Q 2600 3084 3056 2656 
Q 3513 2228 3513 1497 
Q 3513 744 3044 326 
Q 2575 -91 1722 -91 
Q 1428 -91 1123 -41 
Q 819 9 494 109 
L 494 744 
Q 775 591 1075 516 
Q 1375 441 1709 441 
Q 2250 441 2565 725 
Q 2881 1009 2881 1497 
Q 2881 1984 2565 2268 
Q 2250 2553 1709 2553 
Q 1456 2553 1204 2497 
Q 953 2441 691 2322 
L 691 4666 
z
" transform="scale(0.015625)"/>
       </defs>
       <use xlink:href="#DejaVuSans-35"/>
       <use xlink:href="#DejaVuSans-30" x="63.623047"/>
      </g>
     </g>
    </g>
    <g id="text_32">
     <!-- PC 3 -->
     <g transform="translate(181.815625 1017.963621) rotate(-90) scale(0.1 -0.1)">
      <use xlink:href="#DejaVuSans-50"/>
      <use xlink:href="#DejaVuSans-43" x="60.302734"/>
      <use xlink:href="#DejaVuSans-20" x="130.126953"/>
      <use xlink:href="#DejaVuSans-33" x="161.914062"/>
     </g>
    </g>
   </g>
   <g id="line2d_39">
    <path d="M 276.872727 1096.340428 
L 288.92471 1097.530172 
L 301.385235 1121.775227 
L 313.84576 1105.333012 
L 326.306284 1072.80373 
L 338.766809 1090.236724 
L 351.431605 1058.26881 
L 363.892129 1056.057229 
L 376.352654 1049.683371 
L 388.813179 1065.700473 
L 401.273703 1055.522453 
L 413.938499 1065.91014 
L 425.990482 1061.319212 
L 438.042465 1068.198113 
L 450.50299 1036.786675 
L 462.963514 1055.514347 
L 475.424039 1060.766521 
L 487.884564 1077.726272 
L 500.549359 1070.411362 
L 513.009884 1070.740416 
L 525.470409 1054.311617 
L 537.930933 1072.232498 
L 550.391458 1062.959018 
L 563.056254 1050.698671 
L 575.108237 1112.285717 
L 587.16022 1103.050917 
L 599.620744 1079.270527 
L 612.081269 1079.747828 
L 624.541794 1135.718067 
L 637.002318 1097.850745 
L 649.667114 1096.0013 
L 662.127639 1096.787207 
L 674.588164 1088.809027 
L 687.048688 1064.62154 
L 699.509213 1037.525404 
L 712.174009 992.593536 
L 724.225991 950.848603 
L 736.277974 920.615379 
L 748.738499 921.482252 
L 761.199024 934.515073 
L 773.659549 936.319399 
L 786.120073 959.930244 
L 798.784869 966.964401 
L 811.245394 995.032138 
L 823.705918 1010.518025 
L 836.166443 1041.677835 
L 848.626968 1014.904235 
L 861.291763 1043.199779 
L 873.343746 1057.435569 
L 885.395729 1054.462742 
L 897.856254 1093.748657 
L 910.316779 1106.306587 
L 922.777303 1076.768044 
L 935.237828 1062.378868 
L 947.902624 1068.116832 
L 960.363148 1059.954713 
L 972.823673 1063.787314 
L 985.284198 1060.540493 
L 997.744722 1037.498413 
L 1010.409518 1057.590193 
L 1022.461501 1050.554827 
L 1034.513484 1018.15145 
L 1046.974009 1092.067259 
L 1059.434533 1115.665347 
L 1071.895058 1140.098824 
L 1084.355583 1129.865725 
L 1097.020378 1126.122501 
L 1109.480903 1111.503715 
L 1121.941428 1093.620397 
L 1134.401952 1094.177928 
L 1146.862477 1080.966639 
L 1159.527273 1071.085749 
L 1171.579256 1031.274824 
L 1183.631239 1026.711851 
L 1196.091763 1032.621919 
L 1208.552288 1009.257736 
L 1221.012813 1015.733574 
L 1233.473337 1010.61829 
L 1246.138133 987.935335 
L 1258.598658 963.636734 
L 1271.059182 961.386861 
L 1283.519707 999.243219 
L 1295.980232 1029.551616 
L 1308.645027 1034.498607 
L 1320.69701 1019.799911 
L 1332.748993 1011.904374 
L 1345.209518 1005.388378 
L 1357.670043 1013.315805 
L 1370.130567 1001.547228 
L 1382.591092 1021.043409 
L 1395.255888 1014.889679 
L 1407.716412 999.685856 
L 1420.176937 1005.383821 
L 1432.637462 998.784169 
L 1445.097987 999.992116 
L 1457.762782 943.34653 
L 1469.814765 942.552404 
L 1481.866748 912.864292 
L 1494.327273 873.275294 
" clip-path="url(#p180429f064)" style="fill: none; stroke: #1f77b4; stroke-width: 1.5; stroke-linecap: square"/>
   </g>
   <g id="line2d_40">
    <path d="M 276.872727 1085.091072 
L 288.92471 1093.954924 
L 301.385235 1095.795181 
L 313.84576 1118.689541 
L 326.306284 1103.86574 
L 338.766809 1073.010582 
L 351.431605 1086.516317 
L 363.892129 1057.78183 
L 376.352654 1055.748318 
L 388.813179 1048.798236 
L 401.273703 1067.924513 
L 413.938499 1062.277381 
L 425.990482 1069.633569 
L 438.042465 1064.963135 
L 450.50299 1072.108116 
L 462.963514 1037.569472 
L 475.424039 1053.668801 
L 487.884564 1052.717864 
L 500.549359 1071.148903 
L 513.009884 1069.385798 
L 525.470409 1073.220383 
L 537.930933 1058.377022 
L 550.391458 1071.93188 
L 563.056254 1062.393471 
L 575.108237 1048.283265 
L 587.16022 1106.057841 
L 599.620744 1098.067199 
L 612.081269 1076.526777 
L 624.541794 1073.592766 
L 637.002318 1127.378026 
L 649.667114 1092.313516 
L 662.127639 1086.755119 
L 674.588164 1090.997642 
L 687.048688 1083.357068 
L 699.509213 1056.191385 
L 712.174009 1032.672667 
L 724.225991 992.482261 
L 736.277974 955.513837 
L 748.738499 928.612461 
L 761.199024 931.972065 
L 773.659549 945.300043 
L 786.120073 946.769138 
L 798.784869 970.168555 
L 811.245394 978.269016 
L 823.705918 1005.052643 
L 836.166443 1018.960277 
L 848.626968 1049.834918 
L 861.291763 1023.997863 
L 873.343746 1048.979372 
L 885.395729 1060.007361 
L 897.856254 1058.717351 
L 910.316779 1091.413923 
L 922.777303 1098.693071 
L 935.237828 1072.167675 
L 947.902624 1061.173831 
L 960.363148 1067.011972 
L 972.823673 1060.177068 
L 985.284198 1063.626958 
L 997.744722 1061.583779 
L 1010.409518 1041.01886 
L 1022.461501 1056.684898 
L 1034.513484 1052.452902 
L 1046.974009 1024.625434 
L 1059.434533 1088.025366 
L 1071.895058 1111.207816 
L 1084.355583 1137.856899 
L 1097.020378 1129.829593 
L 1109.480903 1124.956109 
L 1121.941428 1109.47775 
L 1134.401952 1094.13214 
L 1146.862477 1095.982371 
L 1159.527273 1081.809444 
L 1171.579256 1072.29592 
L 1183.631239 1038.953131 
L 1196.091763 1031.472948 
L 1208.552288 1035.1928 
L 1221.012813 1007.265614 
L 1233.473337 1011.690202 
L 1246.138133 1006.439046 
L 1258.598658 986.146701 
L 1271.059182 966.667652 
L 1283.519707 964.200288 
L 1295.980232 1002.395479 
L 1308.645027 1031.862085 
L 1320.69701 1039.619144 
L 1332.748993 1025.343617 
L 1345.209518 1014.331882 
L 1357.670043 1011.451168 
L 1370.130567 1016.294542 
L 1382.591092 1005.487555 
L 1395.255888 1021.487598 
L 1407.716412 1013.901848 
L 1420.176937 1001.133564 
L 1432.637462 1006.314348 
L 1445.097987 998.710458 
L 1457.762782 1000.666082 
L 1469.814765 944.133611 
L 1481.866748 943.901901 
L 1494.327273 917.982547 
" clip-path="url(#p180429f064)" style="fill: none; stroke: #ff7f0e; stroke-width: 1.5; stroke-linecap: square"/>
   </g>
   <g id="patch_14">
    <path d="M 216 1153.44 
L 216 859.934118 
" style="fill: none; stroke: #000000; stroke-width: 0.8; stroke-linejoin: miter; stroke-linecap: square"/>
   </g>
   <g id="patch_15">
    <path d="M 1555.2 1153.44 
L 1555.2 859.934118 
" style="fill: none; stroke: #000000; stroke-width: 0.8; stroke-linejoin: miter; stroke-linecap: square"/>
   </g>
   <g id="patch_16">
    <path d="M 216 1153.44 
L 1555.2 1153.44 
" style="fill: none; stroke: #000000; stroke-width: 0.8; stroke-linejoin: miter; stroke-linecap: square"/>
   </g>
   <g id="patch_17">
    <path d="M 216 859.934118 
L 1555.2 859.934118 
" style="fill: none; stroke: #000000; stroke-width: 0.8; stroke-linejoin: miter; stroke-linecap: square"/>
   </g>
  </g>
 </g>
 <defs>
  <clipPath id="p4042085647">
   <rect x="216" y="155.52" width="1339.2" height="293.505882"/>
  </clipPath>
  <clipPath id="pd9c159fa22">
   <rect x="216" y="507.727059" width="1339.2" height="293.505882"/>
  </clipPath>
  <clipPath id="p180429f064">
   <rect x="216" y="859.934118" width="1339.2" height="293.505882"/>
  </clipPath>
 </defs>
</svg>
